<?xml version="1.0" encoding="utf-8"?>
<!-- Generator: Adobe Illustrator 23.0.1, SVG Export Plug-In . SVG Version: 6.00 Build 0)  -->
<svg version="1.1" xmlns="http://www.w3.org/2000/svg" xmlns:xlink="http://www.w3.org/1999/xlink" x="0px" y="0px"
	 viewBox="0 0 150 150" style="enable-background:new 0 0 150 150;" xml:space="preserve">
<style type="text/css">
	.st0{fill:#DC2626;}
	.st1{fill:none;stroke:#000000;stroke-width:4;stroke-linecap:round;stroke-miterlimit:10;}
	.st2{fill:none;stroke:#000000;stroke-width:4;stroke-miterlimit:10;}
	.st3{display:none;}
	.st4{display:inline;fill:none;stroke:#DC2626;stroke-width:0.5;stroke-miterlimit:10;}
	.st5{display:inline;}
	.st6{display:inline;fill:#DC2626;}
	.st7{fill:none;stroke:#000000;stroke-width:3;stroke-miterlimit:10;}
	.st8{fill:none;stroke:#000000;stroke-width:3;stroke-miterlimit:10;stroke-dasharray:4,2;}
</style>
<g id="_x32_nd">
	<g id="environment_impact_assessements">
	</g>
	<g id="structural_engineering_design">
	</g>
	<g id="Project_feasibility_study">
	</g>
	<g id="civil_engineering_design">
	</g>
	<g id="stractural_assessment">
	</g>
	<g id="Project_maneagement">
	</g>
</g>
<g id="_x31_st_folder">
	<g id="structural_engineering">
	</g>
	<g id="civil_engineering">
	</g>
	<g id="waste_and_waste_water">
	</g>
	<g id="construction_management">
		<polygon class="st0" points="23.88,28.47 24.03,42.18 40.3,43.16 40.3,28.47 		"/>
		<path d="M91,62l-17.49,0.16c-0.02,0.3-0.29,5.02,3.5,7.79c2.93,2.14,6.82,2.06,9.7,0.32C89.54,68.55,91.19,65.36,91,62z"/>
		<path d="M92.19,58.66v2.31H72.01v-2.31h1.58c0.02-0.87,0.19-2.5,1.19-4.13c1.05-1.71,2.55-2.68,3.91-3.24v3.57
			c0.07,0.27,0.31,0.44,0.59,0.44c0.25-0.01,0.49-0.2,0.54-0.45l-0.02-3.74l0-0.99c1.59-0.02,3.26-0.02,4.85-0.04l-0.08,4.85
			c0.07,0.27,0.31,0.44,0.57,0.44c0.27-0.01,0.49-0.2,0.55-0.45l-0.03-3.73c1.68,0.65,3.18,1.8,4.15,3.42
			c0.94,1.59,1.09,3.17,1.12,4.05H92.19z"/>
		<path d="M99.58,83.53c-0.62-1.87-1.3-3.29-2.33-4.67c-0.45-0.61-1.2-1.6-2.44-2.54c-2.11-1.61-4.4-2.09-5.83-2.23
			c-0.02,0.01-0.03,0.03-0.06,0.06c-0.21-0.03-0.43-0.06-0.65-0.06H75.8c-0.52,0-1.02,0.1-1.47,0.28c-1.44,0.23-3.69,0.84-5.71,2.58
			c-0.72,0.63-1.73,1.68-3.05,4.35c-0.61,1.24-2.64,5.63-3.2,12.51c-0.18,2.1-0.15,4.3-0.11,8.69c0.02,2.04,0.07,3.72,0.11,4.88
			c0,0.18,0.01,1.12,0.77,1.87c0.49,0.49,1.15,0.78,1.88,0.78h0.42c1.47,0,2.65-1.19,2.65-2.65c-0.1-3.04-0.11-6.23,0-9.55
			c0.06-1.48,0.12-2.93,0.21-4.34c0.03-1.28,0.22-3.02,0.85-4.98c0.35-1.08,0.73-1.92,0.96-2.39c0.52-1.07,1.08-1.95,1.59-2.64
			v57.76c0,1.81,1.17,3.34,2.78,3.87c0.18,0.06,3.39,0.95,5.42-1.05c0.68-0.68,1.01-1.47,1.17-2.02
			c0.09-11.45,0.17-22.89,0.26-34.34c0.48,0,0.96,0,1.44,0c0.04,11.45,0.07,22.9,0.11,34.35c0.1,0.49,0.34,1.23,0.96,1.91
			c0.82,0.91,1.9,1.26,2.77,1.37h1.65c2.28,0,4.11-1.82,4.11-4.09V83.31c1.4,2.36,2.12,4.47,2.52,5.95c0.6,2.22,0.75,4.15,0.87,5.71
			c0.1,1.33,0.12,2.39,0.14,3.71c0.02,1.93-0.02,2.71-0.04,4.88c0,1.09,0,2.68,0.04,4.64c0,0.18,0.01,1.12,0.77,1.88
			c0.47,0.47,1.14,0.77,1.88,0.77h0.42c1.47,0,2.65-1.19,2.65-2.65V94.63C101.48,92.45,101.05,87.87,99.58,83.53z M85.53,94.88
			l-3.18,7.32l-3.26-7.24l2.47-15.59l-1.51-4.13l5.57-0.16l-2.15,4.53L85.53,94.88z"/>
		<polyline class="st2" points="57.83,112.28 15.24,112.28 15.24,18.1 75.14,18.1 75.14,47 		"/>
		<rect x="23.88" y="28.47" class="st7" width="16.42" height="14.69"/>
		<rect x="23.96" y="55.38" class="st7" width="16.42" height="14.69"/>
		<rect x="23.78" y="81.17" class="st7" width="16.42" height="14.69"/>
		<path class="st8" d="M44.23,36.15c7.62-0.05,15.24-0.1,22.86-0.16"/>
		<path class="st8" d="M44.66,88.48c5.58-0.04,11.16-0.08,16.74-0.11"/>
		<path class="st8" d="M44.62,64.65c7.75-0.05,15.5-0.11,23.24-0.16"/>
		<path class="st1" d="M30.16,33.83l2.81,4.63c0.18,0.34,0.64,0.41,0.91,0.14c5.58-5.33,7.29-6.97,12.87-12.3"/>
	</g>
</g>
</svg>
