<?xml version="1.0" encoding="utf-8"?>
<!-- Generator: Adobe Illustrator 23.0.1, SVG Export Plug-In . SVG Version: 6.00 Build 0)  -->
<svg version="1.1" id="Layer_1" xmlns="http://www.w3.org/2000/svg" xmlns:xlink="http://www.w3.org/1999/xlink" x="0px" y="0px"
	 viewBox="0 0 725 1024" style="enable-background:new 0 0 725 1024;" xml:space="preserve">
<style type="text/css">
	.st0{fill-rule:evenodd;clip-rule:evenodd;}
</style>
<path class="st0" d="M707.3,53.1c-43.3-13.9-28,4.6-53.5,20.1c-25.4-10.7-89-61.9-97.8-66.6c-13.4,28.6-30.4,58.7-48.4,88.7
	c0,0,0,0,0-0.1c0,0,0,0.1-0.1,0.1c0,0,0,0,0,0c0,0,0,0.1-0.1,0.1c-2.8,4.4-5.6,8.9-8.5,13.6c-0.2,0.3-0.4,0.6-0.5,0.9
	c-5.9,9.5-12.1,19.5-18.4,29.8c-0.3,0.5-0.6,1-0.9,1.5c-2.9,4.8-5.9,9.7-8.9,14.6c-0.1,0.2-0.2,0.4-0.4,0.6c0,0,0,0,0-0.1
	c-0.1,0.1-0.2,0.3-0.3,0.4c0.1-0.1,0.2-0.3,0.2-0.4c-11.7,18.7-23.2,36.9-33.7,54.2c-41.2,67.5-83.1,134.3-122.7,201.8
	C296.6,441,186.8,546,154.9,578.7L34.8,702c-17.8,17.3-15.3,17.6-13.7,63.5l437.5-427.9c10.8-10.3,20.3-18.6,31.3-29.4
	c14-13.7,23.7-25.8,38.4-29.7c-0.3,232.1,2.6,470.8,0.1,700.6l-0.5,21.5l61.5,0.4l0-784.6c18.4-12.5,43.8-43.8,62.3-49.7L652,198
	c23.9-0.1,25.6,2.9,39.1-10.3c9.4-9.2,19-13.8,18.9-31.4C709.9,126,708.6,85.8,707.3,53.1z M544.9,466.2
	c-0.4-27.9-4.9-33.6,17.4-41.6l0.5,102.4c0,20.7,3.8,19.5-13.3,24.9l-2.5-5C542.6,532.5,545.1,480.4,544.9,466.2z M547.7,38.4
	l-73.5,171.7L547.7,38.4C547.7,38.4,547.7,38.4,547.7,38.4z M547.6,38.4c-0.5,0.4-1.2,1-1.9,1.7C546.5,39.4,547.1,38.8,547.6,38.4z
	 M512.6,87.3c-0.6,1-1.3,2-1.9,3C511.4,89.3,512,88.3,512.6,87.3z M545.4,40.5c-0.7,0.7-1.5,1.6-2.3,2.6
	C543.9,42.1,544.7,41.2,545.4,40.5z M542.4,43.9c-0.9,1-1.8,2.2-2.8,3.5C540.6,46.1,541.5,45,542.4,43.9z M538.8,48.5
	c-0.9,1.2-1.8,2.4-2.7,3.7C537.1,50.9,538,49.7,538.8,48.5z M535,53.7c-1,1.4-2.1,2.9-3.1,4.5C533,56.6,534,55.1,535,53.7z
	 M530.4,60.3c-1.1,1.6-2.3,3.3-3.4,5.1C528.1,63.7,529.3,62,530.4,60.3z M525,68.4c-0.9,1.3-1.8,2.7-2.7,4
	C523.2,71.1,524.1,69.7,525,68.4z M519.1,77.4c-0.7,1.1-1.4,2.2-2.1,3.3C517.7,79.6,518.4,78.4,519.1,77.4z M324,399.5
	c-2.3,5-3.9,9.3-4.4,12.4c0,0,0,0,0,0C320.1,408.8,321.7,404.5,324,399.5z M533,218.5c-14.2,18.5-0.8-25.5-50,1.2l0.6,44.8
	c-16.7,11.4-26.4,28.2-42.7,34.5c3.9-23.2,39.2-94.4,50.8-121.9c5.9-14,43.3-108,56.3-118.3c-0.8,39.9-5.9,77.1-9.6,117.2
	C536.7,194.4,539.8,209.8,533,218.5z M545,283.4c1.6-15.4,5.7-14.7,17.6-18.5l0.4,106c-0.3,17.1,0.1,16.7-13.6,21.2
	C541.9,381.7,543.5,298.2,545,283.4z M562.7,950.1l-0.4,34.8c-3.5,9.1,2.1,3.4-7.1,7.4c-4.5-1.9-7.9,2.2-7.8-18.8l1.2-58.1
	c0.3-0.8,0.5-1.6,0.9-2.3c4.3-7.8,7.7-6,13-7.7C562.9,920.3,562.7,935.1,562.7,950.1z M549.5,873.3c-9.1-12.2-4.6-77.1-4.6-97.1
	c0-24.8-4.7-25.8,17.7-30.5l0.3,103.2C562.9,868.2,564,866.7,549.5,873.3z M545.8,713.4l-1-105.5c0.7-19.3,3.2-18.1,17.3-23.5
	c1.8,22.2,0.7,47.6,0.7,70.1C562.8,700.1,568.8,708.6,545.8,713.4z M649.7,111.8c-12.7,8.1-19.9,21.5-34.7,27.8l-0.5-22.1
	c-9.2,2.5-18.7,14.2-25,20.9c-10.8,11.4-4,14-6.9,26.4c-3.2,13.4,0.4,4.1-5.1,9.8c-4.7-14.4-12.7-121.2-12.3-143.7
	C590,39.1,624,76.9,650,90.7L649.7,111.8z M595.2,46.7l-7.9-6.3c-0.5-0.3-1.2-0.8-1.7-1.2l-22-15.9l22.6,9.1
	c0.5,0.4,1.2,0.8,1.7,1.2c0.5,0.4,1.2,0.8,1.7,1.2l4.9,3.8c0.5,0.3,1.1,0.9,1.6,1.2l5.3,3.2c5.5,3.1,6.7,3.7,11,6.6
	c27.4,18.9,37.9,20.3,39.2,37.6C639,82.8,605.8,56.5,595.2,46.7z M103.4,773.2c-19.8,10.6-67.4,70.3-83.1,78.3
	c1.7-40.2-6.3-32.1,15.7-55.7l206.9-221.9c25.2-27,20.1-26.1,43-26.1l204.9,0.2l-0.4,140.5c-8.8-13.9-82.2-81.8-102.7-106.5
	c-14.3,8.9-130.1,132.5-143.6,146.6L103.8,874.1L103.4,773.2z M494.5,1001.3l-301.4-0.1c-32.4,0.2-26.8,1.6-43.9-16
	c-18.7-19.3-40.7-42.7-59.6-59.9c52.9-0.8,156.9,6,201.7-1.8l-0.2-77.9l61.7,0.1l2.9,74.2c0.3,0.7,0.7,1.7,1.2,2.4l81.8,1.2
	l1.7-151.8c29.4,43.8,54.4,25.6,54,85.6C494.2,905.3,494.8,953.4,494.5,1001.3z M495.5,786.7l-109.3-110c-12.5,4.5-3.4-0.6-12.8,7.8
	L198.2,865.3c-38.9,41.4-25.9,38.3-81.8,36.6c3.3-2.4,260.8-267.1,269.7-280.7c9.8,13.2,22.4,23,33.9,35.4
	C506.4,749.3,496.9,711.5,495.5,786.7z M21,673.3l0.3-124.5l118,0.3c-7.2,3.6-50,51.6-59.4,61.9c-10.7,11.8-20.2,21.9-30.8,33
	C42.7,650.5,27.3,669.2,21,673.3z"/>
</svg>
