<svg id="Layer_1" data-name="Layer 1" xmlns="http://www.w3.org/2000/svg" viewBox="0 0 304.06 233.7"><defs><style>.cls-1,.cls-2{fill:#fff;}.cls-2{fill-rule:evenodd;}</style></defs><title>megastruct_logo_white</title><path class="cls-1" d="M38.37,238.76a8.32,8.32,0,0,1-3-.52,6,6,0,0,1-2.28-1.53,6.94,6.94,0,0,1-1.44-2.47,10.4,10.4,0,0,1-.5-3.35,8.94,8.94,0,0,1,.58-3.35,7.21,7.21,0,0,1,1.57-2.46,6.62,6.62,0,0,1,2.35-1.54A8.1,8.1,0,0,1,38.5,223a9.74,9.74,0,0,1,1.7.14,11.68,11.68,0,0,1,1.32.32,5.11,5.11,0,0,1,.94.37l.52.28-.8,2.24a6.61,6.61,0,0,0-1.49-.62,7.11,7.11,0,0,0-2.1-.29,5,5,0,0,0-1.83.33,4.12,4.12,0,0,0-1.46,1,4.62,4.62,0,0,0-1,1.7,7.39,7.39,0,0,0-.35,2.37,8.45,8.45,0,0,0,.27,2.2,4.77,4.77,0,0,0,.84,1.72,3.77,3.77,0,0,0,1.43,1.13,4.93,4.93,0,0,0,2.09.41A7.77,7.77,0,0,0,41,236a9,9,0,0,0,1.41-.55l.74,2.24a4.52,4.52,0,0,1-.7.35c-.3.11-.65.22-1.06.33a9.3,9.3,0,0,1-1.37.26,11.89,11.89,0,0,1-1.63.1m20.78-7.87a9.14,9.14,0,0,0-.58-3.4A7.33,7.33,0,0,0,57,225a6.59,6.59,0,0,0-2.31-1.5,8.12,8.12,0,0,0-5.61,0,6.8,6.8,0,0,0-2.34,1.5,7.22,7.22,0,0,0-1.6,2.47,10.28,10.28,0,0,0,0,6.81,7.14,7.14,0,0,0,1.58,2.47A6.34,6.34,0,0,0,49,238.26a8.26,8.26,0,0,0,5.66,0A6.43,6.43,0,0,0,57,236.77a7.12,7.12,0,0,0,1.57-2.47,9.41,9.41,0,0,0,.57-3.41m-11.76,0a7.82,7.82,0,0,1,.31-2.24,4.86,4.86,0,0,1,.88-1.71,3.88,3.88,0,0,1,1.4-1.11,4.63,4.63,0,0,1,3.72,0,3.94,3.94,0,0,1,1.4,1.09,5.08,5.08,0,0,1,.88,1.72,8,8,0,0,1,.31,2.25,7.84,7.84,0,0,1-.31,2.25,4.9,4.9,0,0,1-.88,1.72,4,4,0,0,1-1.4,1.1A4.63,4.63,0,0,1,50,236a4,4,0,0,1-1.4-1.1,4.74,4.74,0,0,1-.88-1.72,7.84,7.84,0,0,1-.31-2.25m27.24,7.54V223.37H71.91v10c-.49-.78-1-1.63-1.68-2.53s-1.28-1.81-2-2.71-1.34-1.76-2-2.6S65,224,64.39,223.37H62.15v15.06h2.7V227.65c.61.73,1.25,1.54,1.92,2.45s1.34,1.84,2,2.8,1.29,1.92,1.89,2.87,1.16,1.84,1.66,2.66Zm7.26-2a8.09,8.09,0,0,1-2.41-.32,9.11,9.11,0,0,1-1.59-.66l-.8,2.24a5.55,5.55,0,0,0,.69.34c.29.12.64.24,1,.36a12,12,0,0,0,1.37.29,11.05,11.05,0,0,0,1.7.12,6.77,6.77,0,0,0,4.23-1.12,3.78,3.78,0,0,0,1.45-3.16,4.91,4.91,0,0,0-.31-1.82,3.61,3.61,0,0,0-.88-1.3,5.3,5.3,0,0,0-1.41-1c-.56-.27-1.19-.53-1.9-.79-.41-.15-.78-.3-1.12-.46a5,5,0,0,1-.89-.52,2.09,2.09,0,0,1-.59-.64,1.69,1.69,0,0,1-.21-.86,1.5,1.5,0,0,1,.62-1.28,2.82,2.82,0,0,1,1.73-.46,7.37,7.37,0,0,1,1.82.22,6.14,6.14,0,0,1,1.61.63l.85-2.22a7.87,7.87,0,0,0-1.73-.68,9.05,9.05,0,0,0-2.51-.32,5.83,5.83,0,0,0-3.84,1.17,3.89,3.89,0,0,0-1.42,3.2,3.65,3.65,0,0,0,1.23,2.87,5.45,5.45,0,0,0,1.28.84c.49.22,1,.43,1.51.62a14.38,14.38,0,0,1,1.4.53,5.48,5.48,0,0,1,1,.59,2.37,2.37,0,0,1,.65.7,1.87,1.87,0,0,1,.23.94,1.65,1.65,0,0,1-.68,1.41,3.64,3.64,0,0,1-2.15.5m13.89,2.37a7.49,7.49,0,0,0,2.68-.44,4.92,4.92,0,0,0,1.85-1.25,5.19,5.19,0,0,0,1.09-1.9,7.54,7.54,0,0,0,.36-2.39v-9.41H99v9.15a5.94,5.94,0,0,1-.23,1.75,3.09,3.09,0,0,1-.65,1.19,2.56,2.56,0,0,1-1,.67,3.64,3.64,0,0,1-1.31.22,3.53,3.53,0,0,1-1.29-.22,2.6,2.6,0,0,1-1-.67,3.09,3.09,0,0,1-.65-1.19,5.94,5.94,0,0,1-.23-1.75v-9.15H89.87v9.41a7.84,7.84,0,0,0,.35,2.39,5.15,5.15,0,0,0,1.07,1.9,5,5,0,0,0,1.84,1.25,7.24,7.24,0,0,0,2.65.44M108,236.07v-12.7h-2.74v15.06h9.52v-2.36Zm5.11-12.7v2.37h4.63v12.69h2.76V225.74h4.63v-2.37Zm14.11,15.06H130V223.37h-2.73Zm18.82,0V223.37h-2.72v10c-.49-.78-1-1.63-1.68-2.53s-1.28-1.81-2-2.71-1.34-1.76-2-2.6-1.29-1.55-1.87-2.16h-2.24v15.06h2.7V227.65c.61.73,1.25,1.54,1.92,2.45s1.34,1.84,2,2.8,1.28,1.92,1.89,2.87,1.16,1.84,1.65,2.66Zm10.65-13a7.48,7.48,0,0,1,2,.27,6.49,6.49,0,0,1,1.62.66l.83-2.24-.53-.28a5.5,5.5,0,0,0-1-.37,12.93,12.93,0,0,0-1.4-.32,11.46,11.46,0,0,0-1.86-.14,8,8,0,0,0-2.87.52,6.62,6.62,0,0,0-2.35,1.54,7.07,7.07,0,0,0-1.57,2.46,8.94,8.94,0,0,0-.58,3.35,9.86,9.86,0,0,0,.52,3.35A7,7,0,0,0,151,236.7a6.25,6.25,0,0,0,2.29,1.52,8.14,8.14,0,0,0,3,.52,16.89,16.89,0,0,0,3.11-.26,13.75,13.75,0,0,0,1.91-.48v-7.24h-2.74v5.41a4.89,4.89,0,0,1-.82.15c-.35,0-.76.05-1.24.05a4.65,4.65,0,0,1-2-.4,4,4,0,0,1-1.44-1.12,5.12,5.12,0,0,1-.87-1.73,8.19,8.19,0,0,1-.29-2.23,6,6,0,0,1,1.23-4,4.41,4.41,0,0,1,3.55-1.44m23.06,13v-2.32H172.3V231.7h6.17v-2.29H172.3V225.7h6.93v-2.33h-9.67v15.06Zm15,0V223.37h-2.72v10c-.49-.78-1.05-1.63-1.69-2.53s-1.28-1.81-2-2.71-1.35-1.76-2-2.6-1.29-1.55-1.87-2.16H182.3v15.06H185V227.65c.61.73,1.25,1.54,1.93,2.45s1.34,1.84,2,2.8,1.28,1.92,1.89,2.87,1.16,1.84,1.65,2.66Zm10.65-13a7.54,7.54,0,0,1,2,.27,6.82,6.82,0,0,1,1.62.66l.83-2.24-.54-.28a5.08,5.08,0,0,0-1-.37,13.16,13.16,0,0,0-1.41-.32,11.37,11.37,0,0,0-1.86-.14,8,8,0,0,0-2.86.52,6.53,6.53,0,0,0-2.35,1.54,7.23,7.23,0,0,0-1.58,2.46,9.15,9.15,0,0,0-.57,3.35,9.86,9.86,0,0,0,.52,3.35,7,7,0,0,0,1.46,2.46,6.38,6.38,0,0,0,2.3,1.52,8.14,8.14,0,0,0,3,.52,16.7,16.7,0,0,0,3.1-.26,14.4,14.4,0,0,0,1.92-.48v-7.24h-2.74v5.41a5.25,5.25,0,0,1-.83.15c-.35,0-.76.05-1.24.05a4.71,4.71,0,0,1-2-.4,4,4,0,0,1-1.43-1.12,4.78,4.78,0,0,1-.87-1.73,7.82,7.82,0,0,1-.29-2.23,6,6,0,0,1,1.22-4,4.43,4.43,0,0,1,3.56-1.44m7.8,13H216V223.37h-2.74Zm18.83,0V223.37h-2.72v10c-.49-.78-1.05-1.63-1.69-2.53s-1.28-1.81-2-2.71-1.35-1.76-2-2.6-1.29-1.55-1.87-2.16h-2.24v15.06h2.69V227.65c.61.73,1.25,1.54,1.93,2.45s1.34,1.84,2,2.8,1.28,1.92,1.89,2.87,1.16,1.84,1.65,2.66Zm13.8,0v-2.32H238.4V231.7h6.18v-2.29H238.4V225.7h6.94v-2.33h-9.67v15.06Zm12.74,0v-2.32h-7.46V231.7h6.18v-2.29h-6.18V225.7h6.94v-2.33H248.4v15.06Zm6.69-15.21c-.59,0-1.27,0-2,.07a14,14,0,0,0-2.13.3v14.84h2.74v-5.69h1.74l.52,0c.28.35.57.74.89,1.18s.64.92,1,1.42.65,1,1,1.54.61,1,.89,1.57h3.06c-.26-.56-.55-1.14-.89-1.72s-.68-1.16-1-1.72-.72-1.08-1.07-1.56-.66-.88-.93-1.21a4.11,4.11,0,0,0,3-4.15,4.16,4.16,0,0,0-1.73-3.66,8.78,8.78,0,0,0-5-1.19m.2,2.37a8.53,8.53,0,0,1,1.48.12,3.53,3.53,0,0,1,1.16.4,1.89,1.89,0,0,1,.75.76,2.47,2.47,0,0,1,.26,1.17,2.57,2.57,0,0,1-.26,1.22,1.88,1.88,0,0,1-.77.76,3.65,3.65,0,0,1-1.27.39,11.59,11.59,0,0,1-1.76.11h-1.2v-4.87c.49,0,1-.06,1.61-.06m13.22,10.8a8.11,8.11,0,0,1-2.42-.32,9.3,9.3,0,0,1-1.58-.66l-.81,2.24a6.65,6.65,0,0,0,.7.34,10.89,10.89,0,0,0,1,.36,12.51,12.51,0,0,0,1.37.29,11.09,11.09,0,0,0,1.71.12,6.81,6.81,0,0,0,4.23-1.12,3.78,3.78,0,0,0,1.44-3.16,4.92,4.92,0,0,0-.3-1.82,3.88,3.88,0,0,0-.88-1.3,5.53,5.53,0,0,0-1.42-1c-.56-.27-1.19-.53-1.9-.79-.4-.15-.78-.3-1.12-.46a5,5,0,0,1-.89-.52,2.22,2.22,0,0,1-.59-.64,1.68,1.68,0,0,1-.2-.86,1.48,1.48,0,0,1,.62-1.28,2.81,2.81,0,0,1,1.72-.46,7.32,7.32,0,0,1,1.82.22,6.07,6.07,0,0,1,1.62.63l.85-2.22a8.07,8.07,0,0,0-1.73-.68,9.1,9.1,0,0,0-2.51-.32,5.84,5.84,0,0,0-3.85,1.17,4,4,0,0,0-.18,6.07,5.25,5.25,0,0,0,1.28.84c.48.22,1,.43,1.51.62s1,.35,1.39.53a5.48,5.48,0,0,1,1,.59,2.25,2.25,0,0,1,.65.7,1.77,1.77,0,0,1,.23.94,1.64,1.64,0,0,1-.67,1.41,3.68,3.68,0,0,1-2.15.5" transform="translate(-7.37 -5.06)"/><path class="cls-1" d="M7.37,179.56h8.75l7.13,11.57,7.12-11.57h8.75v29.88H30.89V192.28L23.27,204H23.1l-7.58-11.6v17.07H7.37Zm37,29.88h24.2v-7h-16v-4.74H66.9v-6.53H52.56v-4.52H68.4v-7.05h-24Zm43.53.59a19.32,19.32,0,0,0,7.34-1.32,22.11,22.11,0,0,0,5.64-3.28V192H87.17V198h5.89v3.63a9.5,9.5,0,0,1-8.07.62,7.92,7.92,0,0,1-2.57-1.71A7.45,7.45,0,0,1,80.73,198a9.12,9.12,0,0,1-.6-3.33v-.09a8.55,8.55,0,0,1,2.22-5.8A7.62,7.62,0,0,1,84.76,187a7.07,7.07,0,0,1,3-.64,9.92,9.92,0,0,1,3.91.72,13.62,13.62,0,0,1,3.3,2.1l4.87-5.85a18.65,18.65,0,0,0-5.27-3.2A18.36,18.36,0,0,0,87.73,179a16.9,16.9,0,0,0-6.42,1.19,15.15,15.15,0,0,0-5.08,3.31,15.42,15.42,0,0,0-4.55,11v.09a15.4,15.4,0,0,0,1.24,6.25,14.7,14.7,0,0,0,3.41,4.88,15.4,15.4,0,0,0,5.15,3.18A17.83,17.83,0,0,0,87.94,210m15.19-.59h8.71L114,204.1H125.5l2.17,5.34h8.88l-12.72-30.09h-8Zm13.28-11.74,3.37-8.49,3.33,8.49Zm35.33-4.82c-6.57-1.41-8.11-3-8.11-5.85s2.48-4.86,6.36-4.86a13.1,13.1,0,0,1,8.62,3.24l2-2.6a15.56,15.56,0,0,0-10.5-3.67c-5.68,0-9.82,3.41-9.82,8.19,0,4.95,3.16,7.17,10,8.66,6.28,1.33,7.77,2.91,7.77,5.72,0,3-2.65,5.12-6.66,5.12s-7.13-1.4-10.24-4.22l-2.09,2.47a17.47,17.47,0,0,0,12.2,4.78c5.94,0,10.2-3.33,10.2-8.49,0-4.61-3.07-7-9.73-8.49M179,182.68h10v-3.12H165.57v3.12h10v26.76H179Zm41.06,26.76-9.18-12.21c4.7-.85,8.11-3.75,8.11-8.75,0-5.38-4.22-8.92-10.8-8.92H195.36v29.88h3.37V197.83h8.53l8.67,11.61ZM208,182.68c4.82,0,7.64,2.22,7.64,5.93,0,3.88-3.2,6.19-7.69,6.19h-9.17V182.68H208m42.67-3.12h-3.37v17.37c0,6.53-3.5,9.86-9,9.86-5.72,0-9.14-3.63-9.14-10.07V179.56h-3.37v17.37c0,8.45,5,13,12.42,13s12.46-4.53,12.46-13.23ZM272.26,210c5.42,0,8.83-2.09,11.95-5.25L282,202.52c-2.86,2.74-5.55,4.31-9.65,4.31-6.57,0-11.56-5.42-11.56-12.37s5-12.29,11.56-12.29c4.06,0,6.87,1.7,9.39,4.09l2.31-2.47a15.54,15.54,0,0,0-11.65-4.74c-8.8,0-15.11,7-15.11,15.49s6.36,15.41,15,15.41m29.15-27.27h10v-3.12H288v3.12h10v26.76h3.42Z" transform="translate(-7.37 -5.06)"/><path class="cls-2" d="M205.53,12.3c-6.74-2.16-4.37.72-8.33,3.13-4-1.66-13.86-9.63-15.23-10.37a155.45,155.45,0,0,1-7.54,13.82h0v0c-.43.68-.87,1.38-1.32,2.11l-.09.13c-.92,1.48-1.88,3-2.86,4.64L170,26l-1.39,2.28-.06.09h0l0,.07,0-.06c-1.82,2.91-3.61,5.75-5.25,8.44-6.42,10.51-12.95,20.92-19.11,31.42-2.62,4.46-19.72,20.81-24.68,25.9l-18.7,19.2c-2.77,2.69-2.38,2.74-2.13,9.89L166.8,56.61c1.69-1.61,3.17-2.9,4.89-4.59,2.17-2.14,3.69-4,6-4.62,0,36.13.4,73.31,0,109.09l-.07,3.35,9.58.06V37.73c2.86-1.94,6.82-6.82,9.69-7.74l0,4.88c3.73,0,4,.45,6.08-1.59,1.46-1.43,3-2.15,2.94-4.89C205.93,23.65,205.74,17.4,205.53,12.3ZM180.25,76.63c-.06-4.35-.77-5.23,2.71-6.47l.07,16c0,3.22.59,3-2.07,3.87l-.38-.78C179.88,87,180.28,78.84,180.25,76.63ZM180.68,10,169.23,36.75,180.68,10Zm0,0a3.21,3.21,0,0,0-.29.27A2.2,2.2,0,0,1,180.67,10Zm-5.45,7.62-.29.46Zm5.1-7.29c-.11.11-.23.25-.36.4C180.09,10.6,180.21,10.46,180.32,10.35Zm-.46.53c-.14.16-.28.34-.43.54C179.58,11.22,179.72,11,179.86,10.88Zm-.56.71-.42.58Zm-.59.82c-.16.21-.32.45-.49.69C178.39,12.86,178.55,12.62,178.71,12.41Zm-.72,1-.54.79Zm-.85,1.25-.41.63Zm-.92,1.4-.33.51ZM145.86,66.25a8.27,8.27,0,0,0-.69,1.92h0A8.27,8.27,0,0,1,145.86,66.25ZM178.4,38.07c-2.21,2.88-.12-4-7.79.19l.1,7c-2.6,1.78-4.12,4.39-6.66,5.37.61-3.61,6.11-14.7,7.91-19,.92-2.18,6.75-16.82,8.77-18.41-.13,6.22-.92,12-1.5,18.25C179,34.3,179.45,36.7,178.4,38.07Zm1.86,10.09c.24-2.39.89-2.29,2.74-2.87l.07,16.5c0,2.66,0,2.59-2.11,3.3C179.79,63.47,180,50.48,180.26,48.16ZM183,152l-.06,5.43c-.54,1.41.33.53-1.1,1.14-.69-.3-1.22.35-1.21-2.93l.18-9a3.84,3.84,0,0,1,.14-.36c.67-1.21,1.2-.93,2-1.2C183.05,147.35,183,149.65,183,152ZM181,140c-1.41-1.9-.71-12-.71-15.12,0-3.87-.73-4,2.76-4.76l.05,16.07C183.05,139.23,183.23,139,181,140Zm-.58-24.9-.16-16.43c.12-3,.51-2.81,2.7-3.66.28,3.46.1,7.41.1,10.92C183,113.05,184,114.39,180.38,115.13Zm16.19-93.69c-2,1.26-3.1,3.36-5.41,4.34l-.07-3.45c-1.44.39-2.92,2.21-3.9,3.25-1.68,1.77-.62,2.17-1.08,4.1-.49,2.08.06.65-.8,1.52-.73-2.24-2-18.87-1.92-22.37,3.87,1.3,9.17,7.18,13.22,9.33Zm-8.49-10.13-1.23-1-.27-.18-3.42-2.48,3.51,1.41.27.19.27.19.76.6c.08,0,.17.14.25.19l.82.5a19,19,0,0,1,1.7,1c4.28,3,5.91,3.17,6.1,5.85C194.9,16.94,189.73,12.84,188.08,11.31ZM111.49,124.44c-3.08,1.65-10.49,10.95-12.94,12.19.27-6.26-1-5,2.45-8.68L133.22,93.4c3.92-4.21,3.13-4.07,6.69-4.07l31.89,0-.06,21.87c-1.37-2.17-12.81-12.73-16-16.58-2.23,1.38-20.26,20.63-22.36,22.83l-21.82,22.66ZM172.39,160H125.46c-5,0-4.17.25-6.83-2.48-2.91-3-6.34-6.66-9.28-9.34,8.24-.12,24.42.94,31.41-.28l0-12.13h9.61l.46,11.56a2.5,2.5,0,0,0,.18.37l12.74.18.27-23.63c4.57,6.82,8.47,4,8.41,13.33C172.35,145,172.45,152.49,172.39,160Zm.17-33.42-17-17.13c-1.94.7-.53-.09-2,1.22l-27.29,28.14c-6.05,6.45-4,6-12.75,5.7.51-.37,40.61-41.59,42-43.71,1.52,2.06,3.48,3.59,5.28,5.52C174.25,120.72,172.77,114.82,172.56,126.54ZM98.67,108.87l0-19.39,18.39,0c-1.13.55-7.79,8-9.26,9.64-1.67,1.84-3.15,3.41-4.79,5.14C102.05,105.34,99.64,108.25,98.67,108.87Z" transform="translate(-7.37 -5.06)"/></svg>