<?xml version="1.0" encoding="utf-8"?>
<!-- Generator: Adobe Illustrator 23.0.1, SVG Export Plug-In . SVG Version: 6.00 Build 0)  -->
<svg version="1.1" id="Layer_1" xmlns="http://www.w3.org/2000/svg" xmlns:xlink="http://www.w3.org/1999/xlink" x="0px" y="0px"
	 viewBox="0 0 150 150" style="enable-background:new 0 0 150 150;" xml:space="preserve">
<style type="text/css">
	.st0{fill:#DC2626;}
	.st1{fill:none;stroke:#000000;stroke-width:4;stroke-linecap:round;stroke-miterlimit:10;}
	.st2{fill:none;stroke:#000000;stroke-width:4;stroke-miterlimit:10;}
	.st3{fill:none;}
</style>
<g id="_x32_nd">
	<g id="structural_engineering_design">
		
			<image style="display:none;overflow:visible;enable-background:new    ;" width="1366" height="768" xlink:href="5DA5CC46.png"  transform="matrix(1 0 0 1 -574 -41)">
		</image>
	</g>
	<g id="stractural_assessment">
		<polygon class="st0" points="79.3,75.2 79.7,85.7 67.4,85.7 67.4,73.4 		"/>
		<rect x="114.8" y="23" class="st0" width="12.3" height="12.3"/>
		<path class="st0" d="M132.3,123.9l-1.5,12.3l10.1-0.2c0,0,7.4-8.9,0-14.3L132.3,123.9z"/>
		<path d="M31.3,107.5l-18.2,0.2c0,0.3-0.3,5.2,3.6,8.1c3,2.2,7.1,2.2,10.1,0.3C29.8,114.3,31.5,111,31.3,107.5z"/>
		<path d="M32.5,104v2.4h-21V104h1.6c0-0.9,0.2-2.6,1.2-4.3c1.1-1.8,2.7-2.8,4.1-3.4v3.7c0.1,0.3,0.3,0.5,0.6,0.5
			c0.3,0,0.5-0.2,0.6-0.5l0-3.9v-1c1.6,0,3.4,0,5,0l-0.1,5c0.1,0.3,0.3,0.5,0.6,0.5c0.3,0,0.5-0.2,0.6-0.5l0-3.9
			c1.8,0.7,3.3,1.9,4.3,3.6c1,1.7,1.1,3.3,1.2,4.2C31.2,104,32.5,104,32.5,104z"/>
		<g>
			<line class="st1" x1="132" y1="136" x2="131.8" y2="122.6"/>
			<g>
				<path class="st2" d="M119,114.4c9.4,0,20.2,0,20.2,0V14.9h-33.8c0,0,0,11.3,0,26.3"/>
				<path class="st2" d="M85.9,114.5c12.3,0,33,0,33,0V47.3H77c0,0,0,5.7,0,13.9"/>
				<rect x="61.2" y="66.8" class="st2" width="24.6" height="47.7"/>
			</g>
			<path class="st1" d="M62.5,136.2l78.4-0.2c0.3,0,0.5-0.1,0.7-0.3c0.8-0.8,2.4-2.7,2.8-5.5c0.6-4.2-1.9-7.3-2.8-8.3
				c-0.2-0.2-0.4-0.3-0.7-0.3c-26.3,0-52.6,0-78.9-0.1c-0.1,0-0.3,0-0.4,0.1c-5.2,2.3-10.4,4.7-15.6,7c-0.8,0.4-0.8,1.5,0.1,1.8
				c5.4,1.9,10.7,3.8,16.1,5.6C62.3,136.2,62.4,136.2,62.5,136.2z"/>
			<rect x="99.2" y="56" class="st1" width="12.3" height="12.3"/>
			<rect x="114.8" y="23" class="st1" width="12.3" height="12.3"/>
			<rect x="99.3" y="84.5" class="st1" width="12.3" height="12.3"/>
			<rect x="67.4" y="73.4" class="st1" width="12.3" height="12.3"/>
			<path class="st1" d="M68.8,128.9c18.4-0.1,36.8-0.1,55.2-0.1"/>
			<path class="st1" d="M125.6,122.3c0.1,4.3,0.1,8.6,0.1,13"/>
			<polyline class="st1" points="61.9,121.7 68.2,128.7 61.9,135.5 			"/>
			<polygon points="53.1,127 52.5,133.5 45,129.7 			"/>
		</g>
		<path d="M40.2,129.9c-0.6-1.9-1.4-3.4-2.4-4.9c-0.5-0.6-1.3-1.7-2.5-2.6c-2.2-1.7-4.6-2.2-6.1-2.3c0,0,0,0-0.1,0.1
			c-0.2,0-0.5-0.1-0.7-0.1h-13c-0.5,0-1.1,0.1-1.5,0.3c-1.5,0.2-3.8,0.9-5.9,2.7c-0.8,0.7-1.8,1.8-3.2,4.5c-0.5,1.1-2.1,4.5-3,9.9H8
			c0.1-0.7,0.3-1.5,0.6-2.4c0.4-1.1,0.8-2,1-2.5c0.5-1.1,1.1-2,1.6-2.8v7.6h21.5v-7.8c1.5,2.5,2.2,4.6,2.6,6.2
			c0.2,0.5,0.3,1.1,0.4,1.6h6.2C41.6,135.1,41.1,132.5,40.2,129.9z M25,132.5l-3,4.1l-3.1-4.1l2.3-8.8l-1.4-2.3l5.2-0.1l-2,2.6
			L25,132.5z"/>
	</g>
</g>
<g id="_x31_st_folder">
	<g id="civil_engineering">
		
			<image style="display:none;overflow:visible;enable-background:new    ;" width="1366" height="768" xlink:href="5DA5CC4A.png"  transform="matrix(0.4581 0 0 0.4581 -123.0451 -288.2572)">
		</image>
	</g>
</g>
</svg>
